<svg width="348" height="348" viewBox="0 0 348 348" fill="none" xmlns="http://www.w3.org/2000/svg">
<g clip-path="url(#clip0)">
<path fill-rule="evenodd" clip-rule="evenodd" d="M55.4438 278.983C59.5444 278.985 63.5403 279.083 67.3854 279.178H67.3861H67.3868H67.3875H67.3876C74.7297 279.359 81.522 279.526 87.4446 278.983H249.434L249.631 278.817C253.831 278.936 258.131 278.983 262.509 278.983C309.724 278.983 348 273.582 348 229.699C348 185.817 309.724 150.243 262.509 150.243C254.954 150.243 247.628 151.154 240.651 152.863C222.623 125.818 191.843 108 156.902 108C130.763 108 106.953 117.971 89.0684 134.317C83.7612 131.637 77.7621 130.127 71.4104 130.127C49.7468 130.127 32.185 147.689 32.185 169.353C32.185 181.353 37.5743 192.096 46.0647 199.291C19.9185 203.694 0 226.44 0 253.838C0 271.647 8.4153 277.237 21.4862 278.803L21.5265 278.983H23.1912C29.1138 279.526 35.9062 279.359 43.2483 279.178H43.249H43.2497H43.2505C47.0956 279.083 51.0914 278.985 55.192 278.983H55.4438Z" fill="black"/>
<path d="M245.113 45.0568L269.823 121.104H349.784L285.094 168.104L309.803 244.151L245.113 197.151L180.424 244.151L205.133 168.104L140.443 121.104H220.404L245.113 45.0568Z" fill="black"/>
<path d="M200.669 54.89L254.174 114.314L327.224 81.7901L287.243 151.04L340.748 210.464L262.533 193.839L222.551 263.088L214.193 183.564L135.978 166.938L209.027 134.415L200.669 54.89Z" fill="black"/>
<path d="M163.644 81.79L236.694 114.314L290.199 54.8899L281.841 134.415L354.89 166.938L276.675 183.564L268.317 263.088L228.335 193.838L150.12 210.464L203.625 151.04L163.644 81.79Z" fill="black"/>
<circle cx="246.221" cy="153.267" r="77.926" fill="black"/>
<path d="M199.5 123.5C228.5 106.5 290.5 126.5 301 169" stroke="white" stroke-width="6"/>
</g>
<defs>
<clipPath id="clip0">
<rect width="348" height="348" fill="white"/>
</clipPath>
</defs>
</svg>
