<svg width="348" height="348" viewBox="0 0 348 348" fill="none" xmlns="http://www.w3.org/2000/svg">
<path d="M61 315.44L106.865 236" stroke="black" stroke-width="4"/>
<path d="M139.24 315.44L185.104 236" stroke="black" stroke-width="4"/>
<path d="M222.875 315.44L268.74 236" stroke="black" stroke-width="4"/>
<path fill-rule="evenodd" clip-rule="evenodd" d="M55.4438 193.983C59.5444 193.985 63.5403 194.083 67.3854 194.178H67.3861H67.3868H67.3875H67.3876C74.7297 194.359 81.522 194.526 87.4446 193.983H249.434L249.631 193.817C253.831 193.936 258.131 193.983 262.509 193.983C309.724 193.983 348 188.582 348 144.699C348 100.817 309.724 65.2427 262.509 65.2427C254.954 65.2427 247.628 66.1535 240.651 67.8633C222.623 40.8179 191.843 23 156.902 23C130.763 23 106.953 32.971 89.0684 49.3169C83.7612 46.6368 77.7621 45.1271 71.4104 45.1271C49.7468 45.1271 32.185 62.689 32.185 84.3526C32.185 96.3534 37.5743 107.096 46.0647 114.291C19.9185 118.694 0 141.44 0 168.838C0 186.647 8.4153 192.237 21.4862 193.803L21.5265 193.983H23.1912C29.1138 194.526 35.9062 194.359 43.2483 194.178H43.249H43.2497H43.2505C47.0956 194.083 51.0914 193.985 55.192 193.983H55.4438Z" fill="black"/>
</svg>
