<svg width="348" height="348" viewBox="0 0 348 348" fill="none" xmlns="http://www.w3.org/2000/svg">
<path d="M132.579 278.199C130.142 276.981 130.142 275.762 132.579 274.544C135.015 273.326 174 274.544 174 274.544V278.199C174 278.199 135.015 279.417 132.579 278.199Z" fill="black"/>
<path d="M132.579 278.199C130.142 276.981 130.142 275.762 132.579 274.544C135.015 273.326 174 274.544 174 274.544V278.199C174 278.199 135.015 279.417 132.579 278.199Z" stroke="black"/>
<path d="M214.812 278.199C217.249 276.981 217.249 275.762 214.812 274.544C212.376 273.326 173.391 274.544 173.391 274.544V278.199C173.391 278.199 212.376 279.417 214.812 278.199Z" fill="black"/>
<path d="M214.812 278.199C217.249 276.981 217.249 275.762 214.812 274.544C212.376 273.326 173.391 274.544 173.391 274.544V278.199C173.391 278.199 212.376 279.417 214.812 278.199Z" stroke="black"/>
<path d="M171.496 317.861C172.714 320.297 173.932 320.297 175.151 317.861C176.369 315.424 175.151 276.439 175.151 276.439H171.496C171.496 276.439 170.278 315.424 171.496 317.861Z" fill="black"/>
<path d="M171.496 317.861C172.714 320.297 173.932 320.297 175.151 317.861C176.369 315.424 175.151 276.439 175.151 276.439H171.496C171.496 276.439 170.278 315.424 171.496 317.861Z" stroke="black"/>
<path d="M171.496 235.018C172.714 232.582 173.932 232.582 175.151 235.018C176.369 237.455 175.151 276.439 175.151 276.439H171.496C171.496 276.439 170.278 237.455 171.496 235.018Z" fill="black"/>
<path d="M171.496 235.018C172.714 232.582 173.932 232.582 175.151 235.018C176.369 237.455 175.151 276.439 175.151 276.439H171.496C171.496 276.439 170.278 237.455 171.496 235.018Z" stroke="black"/>
<path d="M201.111 307.048C203.695 307.91 204.557 307.048 203.695 304.464C202.834 301.88 174.406 275.175 174.406 275.175L171.822 277.759C171.822 277.759 198.527 306.187 201.111 307.048Z" fill="black"/>
<path d="M201.111 307.048C203.695 307.91 204.557 307.048 203.695 304.464C202.834 301.88 174.406 275.175 174.406 275.175L171.822 277.759C171.822 277.759 198.527 306.187 201.111 307.048Z" stroke="black"/>
<path d="M142.538 248.463C141.677 245.879 142.538 245.018 145.122 245.879C147.707 246.74 174.412 275.168 174.412 275.168L171.827 277.752C171.827 277.752 143.4 251.048 142.538 248.463Z" fill="black"/>
<path d="M142.538 248.463C141.677 245.879 142.538 245.018 145.122 245.879C147.707 246.74 174.412 275.168 174.412 275.168L171.827 277.752C171.827 277.752 143.4 251.048 142.538 248.463Z" stroke="black"/>
<path d="M204.429 247.805C205.29 245.221 204.429 244.36 201.845 245.221C199.26 246.082 172.556 274.51 172.556 274.51L175.14 277.094C175.14 277.094 203.568 250.39 204.429 247.805Z" fill="black"/>
<path d="M204.429 247.805C205.29 245.221 204.429 244.36 201.845 245.221C199.26 246.082 172.556 274.51 172.556 274.51L175.14 277.094C175.14 277.094 203.568 250.39 204.429 247.805Z" stroke="black"/>
<path d="M143.391 303.675C142.529 306.259 143.391 307.121 145.975 306.259C148.56 305.398 175.264 276.97 175.264 276.97L172.68 274.386C172.68 274.386 144.252 301.09 143.391 303.675Z" fill="black"/>
<path d="M143.391 303.675C142.529 306.259 143.391 307.121 145.975 306.259C148.56 305.398 175.264 276.97 175.264 276.97L172.68 274.386C172.68 274.386 144.252 301.09 143.391 303.675Z" stroke="black"/>
<path d="M245.226 280.211C242.79 278.992 242.79 277.774 245.226 276.556C247.663 275.337 286.647 276.556 286.647 276.556V280.211C286.647 280.211 247.663 281.429 245.226 280.211Z" fill="black"/>
<path d="M245.226 280.211C242.79 278.992 242.79 277.774 245.226 276.556C247.663 275.337 286.647 276.556 286.647 276.556V280.211C286.647 280.211 247.663 281.429 245.226 280.211Z" stroke="black"/>
<path d="M327.459 280.211C329.896 278.992 329.896 277.774 327.459 276.556C325.023 275.337 286.038 276.556 286.038 276.556V280.211C286.038 280.211 325.023 281.429 327.459 280.211Z" fill="black"/>
<path d="M327.459 280.211C329.896 278.992 329.896 277.774 327.459 276.556C325.023 275.337 286.038 276.556 286.038 276.556V280.211C286.038 280.211 325.023 281.429 327.459 280.211Z" stroke="black"/>
<path d="M284.143 319.872C285.361 322.309 286.58 322.309 287.798 319.872C289.016 317.436 287.798 278.451 287.798 278.451H284.143C284.143 278.451 282.925 317.436 284.143 319.872Z" fill="black"/>
<path d="M284.143 319.872C285.361 322.309 286.58 322.309 287.798 319.872C289.016 317.436 287.798 278.451 287.798 278.451H284.143C284.143 278.451 282.925 317.436 284.143 319.872Z" stroke="black"/>
<path d="M284.143 237.03C285.361 234.593 286.58 234.593 287.798 237.03C289.016 239.466 287.798 278.451 287.798 278.451H284.143C284.143 278.451 282.925 239.466 284.143 237.03Z" fill="black"/>
<path d="M284.143 237.03C285.361 234.593 286.58 234.593 287.798 237.03C289.016 239.466 287.798 278.451 287.798 278.451H284.143C284.143 278.451 282.925 239.466 284.143 237.03Z" stroke="black"/>
<path d="M313.758 309.06C316.343 309.921 317.204 309.06 316.343 306.476C315.481 303.891 287.053 277.186 287.053 277.186L284.469 279.771C284.469 279.771 311.174 308.199 313.758 309.06Z" fill="black"/>
<path d="M313.758 309.06C316.343 309.921 317.204 309.06 316.343 306.476C315.481 303.891 287.053 277.186 287.053 277.186L284.469 279.771C284.469 279.771 311.174 308.199 313.758 309.06Z" stroke="black"/>
<path d="M255.185 250.475C254.324 247.89 255.185 247.029 257.77 247.89C260.354 248.752 287.059 277.18 287.059 277.18L284.475 279.764C284.475 279.764 256.047 253.059 255.185 250.475Z" fill="black"/>
<path d="M255.185 250.475C254.324 247.89 255.185 247.029 257.77 247.89C260.354 248.752 287.059 277.18 287.059 277.18L284.475 279.764C284.475 279.764 256.047 253.059 255.185 250.475Z" stroke="black"/>
<path d="M317.076 249.817C317.938 247.233 317.076 246.371 314.492 247.233C311.908 248.094 285.203 276.522 285.203 276.522L287.787 279.106C287.787 279.106 316.215 252.401 317.076 249.817Z" fill="black"/>
<path d="M317.076 249.817C317.938 247.233 317.076 246.371 314.492 247.233C311.908 248.094 285.203 276.522 285.203 276.522L287.787 279.106C287.787 279.106 316.215 252.401 317.076 249.817Z" stroke="black"/>
<path d="M256.038 305.686C255.177 308.271 256.038 309.132 258.623 308.271C261.207 307.409 287.912 278.981 287.912 278.981L285.327 276.397C285.327 276.397 256.9 303.102 256.038 305.686Z" fill="black"/>
<path d="M256.038 305.686C255.177 308.271 256.038 309.132 258.623 308.271C261.207 307.409 287.912 278.981 287.912 278.981L285.327 276.397C285.327 276.397 256.9 303.102 256.038 305.686Z" stroke="black"/>
<path d="M19.9314 276.187C17.4949 274.969 17.4949 273.751 19.9314 272.533C22.3679 271.314 61.3525 272.533 61.3525 272.533V276.187C61.3525 276.187 22.3679 277.406 19.9314 276.187Z" fill="black"/>
<path d="M19.9314 276.187C17.4949 274.969 17.4949 273.751 19.9314 272.533C22.3679 271.314 61.3525 272.533 61.3525 272.533V276.187C61.3525 276.187 22.3679 277.406 19.9314 276.187Z" stroke="black"/>
<path d="M102.165 276.187C104.601 274.969 104.601 273.751 102.165 272.533C99.7282 271.314 60.7435 272.533 60.7435 272.533V276.187C60.7435 276.187 99.7281 277.406 102.165 276.187Z" fill="black"/>
<path d="M102.165 276.187C104.601 274.969 104.601 273.751 102.165 272.533C99.7282 271.314 60.7435 272.533 60.7435 272.533V276.187C60.7435 276.187 99.7281 277.406 102.165 276.187Z" stroke="black"/>
<path d="M58.8484 315.849C60.0667 318.286 61.2849 318.285 62.5032 315.849C63.7215 313.412 62.5032 274.428 62.5032 274.428H58.8484C58.8484 274.428 57.6301 313.412 58.8484 315.849Z" fill="black"/>
<path d="M58.8484 315.849C60.0667 318.286 61.2849 318.285 62.5032 315.849C63.7215 313.412 62.5032 274.428 62.5032 274.428H58.8484C58.8484 274.428 57.6301 313.412 58.8484 315.849Z" stroke="black"/>
<path d="M58.8484 233.007C60.0667 230.57 61.2849 230.57 62.5032 233.007C63.7215 235.443 62.5032 274.428 62.5032 274.428H58.8484C58.8484 274.428 57.6301 235.443 58.8484 233.007Z" fill="black"/>
<path d="M58.8484 233.007C60.0667 230.57 61.2849 230.57 62.5032 233.007C63.7215 235.443 62.5032 274.428 62.5032 274.428H58.8484C58.8484 274.428 57.6301 235.443 58.8484 233.007Z" stroke="black"/>
<path d="M88.4635 305.037C91.0479 305.898 91.9093 305.037 91.0479 302.453C90.1865 299.868 61.7587 273.163 61.7587 273.163L59.1744 275.748C59.1744 275.748 85.8792 304.175 88.4635 305.037Z" fill="black"/>
<path d="M88.4635 305.037C91.0479 305.898 91.9093 305.037 91.0479 302.453C90.1865 299.868 61.7587 273.163 61.7587 273.163L59.1744 275.748C59.1744 275.748 85.8792 304.175 88.4635 305.037Z" stroke="black"/>
<path d="M29.8907 246.452C29.0292 243.867 29.8907 243.006 32.475 243.867C35.0593 244.729 61.7642 273.157 61.7642 273.157L59.1799 275.741C59.1799 275.741 30.7521 249.036 29.8907 246.452Z" fill="black"/>
<path d="M29.8907 246.452C29.0292 243.867 29.8907 243.006 32.475 243.867C35.0593 244.729 61.7642 273.157 61.7642 273.157L59.1799 275.741C59.1799 275.741 30.7521 249.036 29.8907 246.452Z" stroke="black"/>
<path d="M91.7816 245.794C92.6431 243.209 91.7816 242.348 89.1973 243.209C86.613 244.071 59.9081 272.499 59.9081 272.499L62.4925 275.083C62.4925 275.083 90.9202 248.378 91.7816 245.794Z" fill="black"/>
<path d="M91.7816 245.794C92.6431 243.209 91.7816 242.348 89.1973 243.209C86.613 244.071 59.9081 272.499 59.9081 272.499L62.4925 275.083C62.4925 275.083 90.9202 248.378 91.7816 245.794Z" stroke="black"/>
<path d="M30.7435 301.663C29.882 304.248 30.7435 305.109 33.3278 304.248C35.9121 303.386 62.617 274.958 62.617 274.958L60.0326 272.374C60.0326 272.374 31.6049 299.079 30.7435 301.663Z" fill="black"/>
<path d="M30.7435 301.663C29.882 304.248 30.7435 305.109 33.3278 304.248C35.9121 303.386 62.617 274.958 62.617 274.958L60.0326 272.374C60.0326 272.374 31.6049 299.079 30.7435 301.663Z" stroke="black"/>
<path fill-rule="evenodd" clip-rule="evenodd" d="M55.4438 196.983C59.5444 196.985 63.5403 197.083 67.3854 197.178H67.3861H67.3868H67.3875H67.3876C74.7297 197.359 81.522 197.526 87.4446 196.983H249.434L249.631 196.817C253.831 196.936 258.131 196.983 262.509 196.983C309.724 196.983 348 191.582 348 147.699C348 103.817 309.724 68.2427 262.509 68.2427C254.954 68.2427 247.628 69.1535 240.651 70.8633C222.623 43.8179 191.843 26 156.902 26C130.763 26 106.953 35.971 89.0684 52.3169C83.7612 49.6368 77.7621 48.1271 71.4104 48.1271C49.7468 48.1271 32.185 65.689 32.185 87.3526C32.185 99.3534 37.5743 110.096 46.0647 117.291C19.9185 121.694 0 144.44 0 171.838C0 189.647 8.4153 195.237 21.4862 196.803L21.5265 196.983H23.1912C29.1138 197.526 35.9062 197.359 43.2483 197.178H43.249H43.2497H43.2505C47.0956 197.083 51.0914 196.985 55.192 196.983H55.4438Z" fill="black"/>
</svg>
