<svg width="348" height="348" viewBox="0 0 348 348" fill="none" xmlns="http://www.w3.org/2000/svg">
<g clip-path="url(#clip0)">
<path d="M174 25L207.453 127.956H315.707L228.127 191.587L261.58 294.544L174 230.913L86.42 294.544L119.873 191.587L32.2926 127.956H140.547L174 25Z" fill="black"/>
<path d="M113.829 38.3127L186.267 118.764L285.165 74.7313L231.036 168.485L303.475 248.936L197.583 226.428L143.454 320.182L132.138 212.517L26.2467 190.009L125.145 145.977L113.829 38.3127Z" fill="black"/>
<path d="M63.7028 74.7312L162.601 118.763L235.039 38.3125L223.723 145.977L322.621 190.009L216.73 212.517L205.414 320.181L151.285 226.428L45.3932 248.936L117.831 168.485L63.7028 74.7312Z" fill="black"/>
<circle cx="175.5" cy="171.5" r="105.5" fill="black"/>
</g>
<defs>
<clipPath id="clip0">
<rect width="348" height="348" fill="white"/>
</clipPath>
</defs>
</svg>
